<?xml version="1.0" encoding="UTF-8" standalone="no"?><svg xmlns="http://www.w3.org/2000/svg" xmlns:xlink="http://www.w3.org/1999/xlink" contentScriptType="application/ecmascript" contentStyleType="text/css" height="862px" preserveAspectRatio="none" style="width:2033px;height:862px;" version="1.1" viewBox="0 0 2033 862" width="2033px" zoomAndPan="magnify"><defs><filter height="300%" id="f1okf4b3jn1wbx" width="300%" x="-1" y="-1"><feGaussianBlur result="blurOut" stdDeviation="2.0"/><feColorMatrix in="blurOut" result="blurOut2" type="matrix" values="0 0 0 0 0 0 0 0 0 0 0 0 0 0 0 0 0 0 .4 0"/><feOffset dx="4.0" dy="4.0" in="blurOut2" result="blurOut3"/><feBlend in="SourceGraphic" in2="blurOut3" mode="normal"/></filter></defs><g><text fill="#000000" font-family="sans-serif" font-size="14" font-weight="bold" lengthAdjust="spacingAndGlyphs" textLength="137" x="943.75" y="23.5352">Application#main()</text><rect fill="#DDDDDD" height="816.5215" style="stroke: #A80036; stroke-width: 1.0;" width="437" x="19" y="34.4883"/><text fill="#000000" font-family="sans-serif" font-size="13" font-weight="bold" lengthAdjust="spacingAndGlyphs" textLength="77" x="199" y="47.0566">Application</text><rect fill="#DDDDDD" height="816.5215" style="stroke: #A80036; stroke-width: 1.0;" width="373" x="474" y="34.4883"/><text fill="#000000" font-family="sans-serif" font-size="13" font-weight="bold" lengthAdjust="spacingAndGlyphs" textLength="45" x="638" y="47.0566">Helper</text><rect fill="#DDDDDD" height="816.5215" style="stroke: #A80036; stroke-width: 1.0;" width="601.5" x="865" y="34.4883"/><text fill="#000000" font-family="sans-serif" font-size="13" font-weight="bold" lengthAdjust="spacingAndGlyphs" textLength="40" x="1145.75" y="47.0566">Utility</text><rect fill="#DDDDDD" height="816.5215" style="stroke: #A80036; stroke-width: 1.0;" width="511" x="1484.5" y="34.4883"/><text fill="#000000" font-family="sans-serif" font-size="13" font-weight="bold" lengthAdjust="spacingAndGlyphs" textLength="45" x="1717.5" y="47.0566">Helper</text><rect fill="#FFFFFF" filter="url(#f1okf4b3jn1wbx)" height="467.7266" style="stroke: #A80036; stroke-width: 1.0;" width="10" x="53" y="99.2871"/><rect fill="#FFFFFF" filter="url(#f1okf4b3jn1wbx)" height="162.5527" style="stroke: #A80036; stroke-width: 1.0;" width="10" x="187" y="250.5293"/><rect fill="#FFFFFF" filter="url(#f1okf4b3jn1wbx)" height="29.3105" style="stroke: #A80036; stroke-width: 1.0;" width="10" x="366.5" y="304.1504"/><rect fill="#FFFFFF" filter="url(#f1okf4b3jn1wbx)" height="29.3105" style="stroke: #A80036; stroke-width: 1.0;" width="10" x="512.5" y="163.9082"/><rect fill="#FFFFFF" filter="url(#f1okf4b3jn1wbx)" height="14" style="stroke: #A80036; stroke-width: 1.0;" width="10" x="629" y="222.5293"/><rect fill="#FFFFFF" filter="url(#f1okf4b3jn1wbx)" height="14" style="stroke: #A80036; stroke-width: 1.0;" width="10" x="772" y="538.0137"/><rect fill="#FFFFFF" filter="url(#f1okf4b3jn1wbx)" height="29.3105" style="stroke: #A80036; stroke-width: 1.0;" width="10" x="914" y="362.7715"/><rect fill="#FFFFFF" filter="url(#f1okf4b3jn1wbx)" height="57.3105" style="stroke: #A80036; stroke-width: 1.0;" width="10" x="1046.5" y="427.082"/><rect fill="#FFFFFF" filter="url(#f1okf4b3jn1wbx)" height="14" style="stroke: #A80036; stroke-width: 1.0;" width="10" x="1383.5" y="456.3926"/><rect fill="#FFFFFF" filter="url(#f1okf4b3jn1wbx)" height="703.2344" style="stroke: #A80036; stroke-width: 1.0;" width="10" x="1558.5" y="99.2871"/><rect fill="#FFFFFF" filter="url(#f1okf4b3jn1wbx)" height="14" style="stroke: #A80036; stroke-width: 1.0;" width="10" x="1739.5" y="655.9453"/><rect fill="#FFFFFF" filter="url(#f1okf4b3jn1wbx)" height="14" style="stroke: #A80036; stroke-width: 1.0;" width="10" x="1852.5" y="708.2559"/><rect fill="#FFFFFF" filter="url(#f1okf4b3jn1wbx)" height="14" style="stroke: #A80036; stroke-width: 1.0;" width="10" x="1950.5" y="766.5215"/><rect fill="#FFFFFF" filter="url(#f1okf4b3jn1wbx)" height="134.5527" style="stroke: #000000; stroke-width: 2.0;" width="886" x="93" y="265.5293"/><rect fill="#FFFFFF" filter="url(#f1okf4b3jn1wbx)" height="60.6211" style="stroke: #000000; stroke-width: 2.0;" width="840" x="13" y="499.3926"/><rect fill="#FFFFFF" filter="url(#f1okf4b3jn1wbx)" height="178.1973" style="stroke: #000000; stroke-width: 2.0;" width="543" x="1468.5" y="617.3242"/><rect fill="#FFFFFF" filter="url(#f1okf4b3jn1wbx)" height="103.5762" style="stroke: #000000; stroke-width: 2.0;" width="523" x="1478.5" y="684.9453"/><rect fill="#FFFFFF" height="58.2656" style="stroke: none; stroke-width: 1.0;" width="523" x="1478.5" y="730.2559"/><line style="stroke: #A80036; stroke-width: 1.0; stroke-dasharray: 5.0,5.0;" x1="58" x2="58" y1="89.2871" y2="812.5215"/><line style="stroke: #A80036; stroke-width: 1.0; stroke-dasharray: 5.0,5.0;" x1="192" x2="192" y1="89.2871" y2="812.5215"/><line style="stroke: #A80036; stroke-width: 1.0; stroke-dasharray: 5.0,5.0;" x1="371" x2="371" y1="89.2871" y2="812.5215"/><line style="stroke: #A80036; stroke-width: 1.0; stroke-dasharray: 5.0,5.0;" x1="517" x2="517" y1="89.2871" y2="812.5215"/><line style="stroke: #A80036; stroke-width: 1.0; stroke-dasharray: 5.0,5.0;" x1="634" x2="634" y1="89.2871" y2="812.5215"/><line style="stroke: #A80036; stroke-width: 1.0; stroke-dasharray: 5.0,5.0;" x1="777" x2="777" y1="89.2871" y2="812.5215"/><line style="stroke: #A80036; stroke-width: 1.0; stroke-dasharray: 5.0,5.0;" x1="919" x2="919" y1="89.2871" y2="812.5215"/><line style="stroke: #A80036; stroke-width: 1.0; stroke-dasharray: 5.0,5.0;" x1="1051" x2="1051" y1="89.2871" y2="812.5215"/><line style="stroke: #A80036; stroke-width: 1.0; stroke-dasharray: 5.0,5.0;" x1="1388.5" x2="1388.5" y1="89.2871" y2="812.5215"/><line style="stroke: #A80036; stroke-width: 1.0; stroke-dasharray: 5.0,5.0;" x1="1563.5" x2="1563.5" y1="89.2871" y2="812.5215"/><line style="stroke: #A80036; stroke-width: 1.0; stroke-dasharray: 5.0,5.0;" x1="1744.5" x2="1744.5" y1="89.2871" y2="812.5215"/><line style="stroke: #A80036; stroke-width: 1.0; stroke-dasharray: 5.0,5.0;" x1="1857.5" x2="1857.5" y1="89.2871" y2="812.5215"/><line style="stroke: #A80036; stroke-width: 1.0; stroke-dasharray: 5.0,5.0;" x1="1955.5" x2="1955.5" y1="89.2871" y2="812.5215"/><rect fill="#FEFECE" filter="url(#f1okf4b3jn1wbx)" height="30.4883" style="stroke: #A80036; stroke-width: 1.5;" width="58" x="27" y="53.7988"/><a target="_top" xlink:actuate="onRequest" xlink:href="examples.Application.main.svg" xlink:show="new" xlink:title="examples.Application.main.svg" xlink:type="simple"><text fill="#0000FF" font-family="sans-serif" font-size="14" lengthAdjust="spacingAndGlyphs" text-decoration="underline" textLength="44" x="34" y="74.334">main()</text><line style="stroke: #0000FF; stroke-width: 1.0;" x1="34" x2="78" y1="76.334" y2="76.334"/></a><rect fill="#FEFECE" filter="url(#f1okf4b3jn1wbx)" height="30.4883" style="stroke: #A80036; stroke-width: 1.5;" width="58" x="27" y="811.5215"/><a target="_top" xlink:actuate="onRequest" xlink:href="examples.Application.main.svg" xlink:show="new" xlink:title="examples.Application.main.svg" xlink:type="simple"><text fill="#0000FF" font-family="sans-serif" font-size="14" lengthAdjust="spacingAndGlyphs" text-decoration="underline" textLength="44" x="34" y="832.0566">main()</text><line style="stroke: #0000FF; stroke-width: 1.0;" x1="34" x2="78" y1="834.0566" y2="834.0566"/></a><rect fill="#FEFECE" filter="url(#f1okf4b3jn1wbx)" height="30.4883" style="stroke: #A80036; stroke-width: 1.5;" width="166" x="107" y="53.7988"/><text fill="#000000" font-family="sans-serif" font-size="14" lengthAdjust="spacingAndGlyphs" textLength="152" x="114" y="74.334">performMainRoutine()</text><rect fill="#FEFECE" filter="url(#f1okf4b3jn1wbx)" height="30.4883" style="stroke: #A80036; stroke-width: 1.5;" width="166" x="107" y="811.5215"/><text fill="#000000" font-family="sans-serif" font-size="14" lengthAdjust="spacingAndGlyphs" textLength="152" x="114" y="832.0566">performMainRoutine()</text><rect fill="#FEFECE" filter="url(#f1okf4b3jn1wbx)" height="30.4883" style="stroke: #A80036; stroke-width: 1.5;" width="149" x="295" y="53.7988"/><text fill="#000000" font-family="sans-serif" font-size="14" lengthAdjust="spacingAndGlyphs" textLength="135" x="302" y="74.334">executeCommand()</text><rect fill="#FEFECE" filter="url(#f1okf4b3jn1wbx)" height="30.4883" style="stroke: #A80036; stroke-width: 1.5;" width="149" x="295" y="811.5215"/><text fill="#000000" font-family="sans-serif" font-size="14" lengthAdjust="spacingAndGlyphs" textLength="135" x="302" y="832.0566">executeCommand()</text><rect fill="#FEFECE" filter="url(#f1okf4b3jn1wbx)" height="30.4883" style="stroke: #A80036; stroke-width: 1.5;" width="67" x="482" y="53.7988"/><text fill="#000000" font-family="sans-serif" font-size="14" lengthAdjust="spacingAndGlyphs" textLength="53" x="489" y="74.334">config()</text><rect fill="#FEFECE" filter="url(#f1okf4b3jn1wbx)" height="30.4883" style="stroke: #A80036; stroke-width: 1.5;" width="67" x="482" y="811.5215"/><text fill="#000000" font-family="sans-serif" font-size="14" lengthAdjust="spacingAndGlyphs" textLength="53" x="489" y="832.0566">config()</text><rect fill="#FEFECE" filter="url(#f1okf4b3jn1wbx)" height="30.4883" style="stroke: #A80036; stroke-width: 1.5;" width="122" x="571" y="53.7988"/><text fill="#000000" font-family="sans-serif" font-size="14" lengthAdjust="spacingAndGlyphs" textLength="108" x="578" y="74.334">startHeartbeat()</text><rect fill="#FEFECE" filter="url(#f1okf4b3jn1wbx)" height="30.4883" style="stroke: #A80036; stroke-width: 1.5;" width="122" x="571" y="811.5215"/><text fill="#000000" font-family="sans-serif" font-size="14" lengthAdjust="spacingAndGlyphs" textLength="108" x="578" y="832.0566">startHeartbeat()</text><rect fill="#FEFECE" filter="url(#f1okf4b3jn1wbx)" height="30.4883" style="stroke: #A80036; stroke-width: 1.5;" width="120" x="715" y="53.7988"/><text fill="#000000" font-family="sans-serif" font-size="14" lengthAdjust="spacingAndGlyphs" textLength="106" x="722" y="74.334">stopHeartBeat()</text><rect fill="#FEFECE" filter="url(#f1okf4b3jn1wbx)" height="30.4883" style="stroke: #A80036; stroke-width: 1.5;" width="120" x="715" y="811.5215"/><text fill="#000000" font-family="sans-serif" font-size="14" lengthAdjust="spacingAndGlyphs" textLength="106" x="722" y="832.0566">stopHeartBeat()</text><rect fill="#FEFECE" filter="url(#f1okf4b3jn1wbx)" height="30.4883" style="stroke: #A80036; stroke-width: 1.5;" width="88" x="873" y="53.7988"/><a target="_top" xlink:actuate="onRequest" xlink:href="examples.Utility.logStatus.svg" xlink:show="new" xlink:title="examples.Utility.logStatus.svg" xlink:type="simple"><text fill="#0000FF" font-family="sans-serif" font-size="14" lengthAdjust="spacingAndGlyphs" text-decoration="underline" textLength="74" x="880" y="74.334">logStatus()</text><line style="stroke: #0000FF; stroke-width: 1.0;" x1="880" x2="954" y1="76.334" y2="76.334"/></a><rect fill="#FEFECE" filter="url(#f1okf4b3jn1wbx)" height="30.4883" style="stroke: #A80036; stroke-width: 1.5;" width="88" x="873" y="811.5215"/><a target="_top" xlink:actuate="onRequest" xlink:href="examples.Utility.logStatus.svg" xlink:show="new" xlink:title="examples.Utility.logStatus.svg" xlink:type="simple"><text fill="#0000FF" font-family="sans-serif" font-size="14" lengthAdjust="spacingAndGlyphs" text-decoration="underline" textLength="74" x="880" y="832.0566">logStatus()</text><line style="stroke: #0000FF; stroke-width: 1.0;" x1="880" x2="954" y1="834.0566" y2="834.0566"/></a><rect fill="#FEFECE" filter="url(#f1okf4b3jn1wbx)" height="30.4883" style="stroke: #A80036; stroke-width: 1.5;" width="133" x="983" y="53.7988"/><text fill="#000000" font-family="sans-serif" font-size="14" lengthAdjust="spacingAndGlyphs" textLength="119" x="990" y="74.334">finishCommand()</text><rect fill="#FEFECE" filter="url(#f1okf4b3jn1wbx)" height="30.4883" style="stroke: #A80036; stroke-width: 1.5;" width="133" x="983" y="811.5215"/><text fill="#000000" font-family="sans-serif" font-size="14" lengthAdjust="spacingAndGlyphs" textLength="119" x="990" y="832.0566">finishCommand()</text><rect fill="#FEFECE" filter="url(#f1okf4b3jn1wbx)" height="30.4883" style="stroke: #A80036; stroke-width: 1.5;" width="136" x="1318.5" y="53.7988"/><text fill="#000000" font-family="sans-serif" font-size="14" lengthAdjust="spacingAndGlyphs" textLength="122" x="1325.5" y="74.334">logOverallStatus()</text><rect fill="#FEFECE" filter="url(#f1okf4b3jn1wbx)" height="30.4883" style="stroke: #A80036; stroke-width: 1.5;" width="136" x="1318.5" y="811.5215"/><text fill="#000000" font-family="sans-serif" font-size="14" lengthAdjust="spacingAndGlyphs" textLength="122" x="1325.5" y="832.0566">logOverallStatus()</text><rect fill="#FEFECE" filter="url(#f1okf4b3jn1wbx)" height="30.4883" style="stroke: #A80036; stroke-width: 1.5;" width="138" x="1492.5" y="53.7988"/><text fill="#000000" font-family="sans-serif" font-size="14" lengthAdjust="spacingAndGlyphs" textLength="124" x="1499.5" y="74.334">heartBeatThread()</text><rect fill="#FEFECE" filter="url(#f1okf4b3jn1wbx)" height="30.4883" style="stroke: #A80036; stroke-width: 1.5;" width="138" x="1492.5" y="811.5215"/><text fill="#000000" font-family="sans-serif" font-size="14" lengthAdjust="spacingAndGlyphs" textLength="124" x="1499.5" y="832.0566">heartBeatThread()</text><rect fill="#FEFECE" filter="url(#f1okf4b3jn1wbx)" height="30.4883" style="stroke: #A80036; stroke-width: 1.5;" width="90" x="1697.5" y="53.7988"/><text fill="#000000" font-family="sans-serif" font-size="14" lengthAdjust="spacingAndGlyphs" textLength="76" x="1704.5" y="74.334">heartbeat()</text><rect fill="#FEFECE" filter="url(#f1okf4b3jn1wbx)" height="30.4883" style="stroke: #A80036; stroke-width: 1.5;" width="90" x="1697.5" y="811.5215"/><text fill="#000000" font-family="sans-serif" font-size="14" lengthAdjust="spacingAndGlyphs" textLength="76" x="1704.5" y="832.0566">heartbeat()</text><rect fill="#FEFECE" filter="url(#f1okf4b3jn1wbx)" height="30.4883" style="stroke: #A80036; stroke-width: 1.5;" width="92" x="1809.5" y="53.7988"/><text fill="#000000" font-family="sans-serif" font-size="14" lengthAdjust="spacingAndGlyphs" textLength="78" x="1816.5" y="74.334">reconnect()</text><rect fill="#FEFECE" filter="url(#f1okf4b3jn1wbx)" height="30.4883" style="stroke: #A80036; stroke-width: 1.5;" width="92" x="1809.5" y="811.5215"/><text fill="#000000" font-family="sans-serif" font-size="14" lengthAdjust="spacingAndGlyphs" textLength="78" x="1816.5" y="832.0566">reconnect()</text><rect fill="#FEFECE" filter="url(#f1okf4b3jn1wbx)" height="30.4883" style="stroke: #A80036; stroke-width: 1.5;" width="60" x="1923.5" y="53.7988"/><text fill="#000000" font-family="sans-serif" font-size="14" lengthAdjust="spacingAndGlyphs" textLength="46" x="1930.5" y="74.334">sleep()</text><rect fill="#FEFECE" filter="url(#f1okf4b3jn1wbx)" height="30.4883" style="stroke: #A80036; stroke-width: 1.5;" width="60" x="1923.5" y="811.5215"/><text fill="#000000" font-family="sans-serif" font-size="14" lengthAdjust="spacingAndGlyphs" textLength="46" x="1930.5" y="832.0566">sleep()</text><rect fill="#FFFFFF" filter="url(#f1okf4b3jn1wbx)" height="467.7266" style="stroke: #A80036; stroke-width: 1.0;" width="10" x="53" y="99.2871"/><rect fill="#FFFFFF" filter="url(#f1okf4b3jn1wbx)" height="162.5527" style="stroke: #A80036; stroke-width: 1.0;" width="10" x="187" y="250.5293"/><rect fill="#FFFFFF" filter="url(#f1okf4b3jn1wbx)" height="29.3105" style="stroke: #A80036; stroke-width: 1.0;" width="10" x="366.5" y="304.1504"/><rect fill="#FFFFFF" filter="url(#f1okf4b3jn1wbx)" height="29.3105" style="stroke: #A80036; stroke-width: 1.0;" width="10" x="512.5" y="163.9082"/><rect fill="#FFFFFF" filter="url(#f1okf4b3jn1wbx)" height="14" style="stroke: #A80036; stroke-width: 1.0;" width="10" x="629" y="222.5293"/><rect fill="#FFFFFF" filter="url(#f1okf4b3jn1wbx)" height="14" style="stroke: #A80036; stroke-width: 1.0;" width="10" x="772" y="538.0137"/><rect fill="#FFFFFF" filter="url(#f1okf4b3jn1wbx)" height="29.3105" style="stroke: #A80036; stroke-width: 1.0;" width="10" x="914" y="362.7715"/><rect fill="#FFFFFF" filter="url(#f1okf4b3jn1wbx)" height="57.3105" style="stroke: #A80036; stroke-width: 1.0;" width="10" x="1046.5" y="427.082"/><rect fill="#FFFFFF" filter="url(#f1okf4b3jn1wbx)" height="14" style="stroke: #A80036; stroke-width: 1.0;" width="10" x="1383.5" y="456.3926"/><rect fill="#FFFFFF" filter="url(#f1okf4b3jn1wbx)" height="703.2344" style="stroke: #A80036; stroke-width: 1.0;" width="10" x="1558.5" y="99.2871"/><rect fill="#FFFFFF" filter="url(#f1okf4b3jn1wbx)" height="14" style="stroke: #A80036; stroke-width: 1.0;" width="10" x="1739.5" y="655.9453"/><rect fill="#FFFFFF" filter="url(#f1okf4b3jn1wbx)" height="14" style="stroke: #A80036; stroke-width: 1.0;" width="10" x="1852.5" y="708.2559"/><rect fill="#FFFFFF" filter="url(#f1okf4b3jn1wbx)" height="14" style="stroke: #A80036; stroke-width: 1.0;" width="10" x="1950.5" y="766.5215"/><rect fill="#EEEEEE" filter="url(#f1okf4b3jn1wbx)" height="3" style="stroke: #EEEEEE; stroke-width: 1.0;" width="2018.5" x="3" y="119.9424"/><line style="stroke: #000000; stroke-width: 1.0;" x1="3" x2="2021.5" y1="119.9424" y2="119.9424"/><line style="stroke: #000000; stroke-width: 1.0;" x1="3" x2="2021.5" y1="122.9424" y2="122.9424"/><rect fill="#EEEEEE" filter="url(#f1okf4b3jn1wbx)" height="23.3105" style="stroke: #000000; stroke-width: 2.0;" width="375" x="824.75" y="109.2871"/><text fill="#000000" font-family="sans-serif" font-size="13" font-weight="bold" lengthAdjust="spacingAndGlyphs" textLength="357" x="830.75" y="125.8555">run queued commands and log all events and status</text><polygon fill="#A80036" points="500.5,159.9082,510.5,163.9082,500.5,167.9082,504.5,163.9082" style="stroke: #A80036; stroke-width: 1.0;"/><line style="stroke: #A80036; stroke-width: 1.0;" x1="63" x2="506.5" y1="163.9082" y2="163.9082"/><text fill="#000000" font-family="sans-serif" font-size="13" lengthAdjust="spacingAndGlyphs" textLength="98" x="70" y="159.166">initialize config</text><polygon fill="#A80036" points="74,189.2188,64,193.2188,74,197.2188,70,193.2188" style="stroke: #A80036; stroke-width: 1.0;"/><line style="stroke: #A80036; stroke-width: 1.0; stroke-dasharray: 2.0,2.0;" x1="68" x2="516.5" y1="193.2188" y2="193.2188"/><text fill="#000000" font-family="sans-serif" font-size="13" lengthAdjust="spacingAndGlyphs" textLength="64" x="80" y="188.4766">config file</text><polygon fill="#A80036" points="617,218.5293,627,222.5293,617,226.5293,621,222.5293" style="stroke: #A80036; stroke-width: 1.0;"/><line style="stroke: #A80036; stroke-width: 1.0;" x1="63" x2="623" y1="222.5293" y2="222.5293"/><text fill="#000000" font-family="sans-serif" font-size="13" lengthAdjust="spacingAndGlyphs" textLength="156" x="70" y="217.7871">start heartbeating thread</text><polygon fill="#A80036" points="74,232.5293,64,236.5293,74,240.5293,70,236.5293" style="stroke: #A80036; stroke-width: 1.0;"/><line style="stroke: #A80036; stroke-width: 1.0; stroke-dasharray: 2.0,2.0;" x1="68" x2="633" y1="236.5293" y2="236.5293"/><polygon fill="#A80036" points="175,246.5293,185,250.5293,175,254.5293,179,250.5293" style="stroke: #A80036; stroke-width: 1.0;"/><line style="stroke: #A80036; stroke-width: 1.0;" x1="63" x2="181" y1="250.5293" y2="250.5293"/><path d="M93,265.5293 L167,265.5293 L167,272.5293 L157,282.5293 L93,282.5293 L93,265.5293 " fill="#EEEEEE" style="stroke: #000000; stroke-width: 1.0;"/><rect fill="none" height="134.5527" style="stroke: #000000; stroke-width: 2.0;" width="886" x="93" y="265.5293"/><text fill="#000000" font-family="sans-serif" font-size="13" font-weight="bold" lengthAdjust="spacingAndGlyphs" textLength="29" x="108" y="279.0977">loop</text><text fill="#000000" font-family="sans-serif" font-size="11" font-weight="bold" lengthAdjust="spacingAndGlyphs" textLength="163" x="182" y="278.1641">[over an array of commands]</text><polygon fill="#A80036" points="354.5,300.1504,364.5,304.1504,354.5,308.1504,358.5,304.1504" style="stroke: #A80036; stroke-width: 1.0;"/><line style="stroke: #A80036; stroke-width: 1.0;" x1="197" x2="360.5" y1="304.1504" y2="304.1504"/><text fill="#000000" font-family="sans-serif" font-size="13" lengthAdjust="spacingAndGlyphs" textLength="115" x="204" y="299.4082">execute command</text><polygon fill="#A80036" points="208,329.4609,198,333.4609,208,337.4609,204,333.4609" style="stroke: #A80036; stroke-width: 1.0;"/><line style="stroke: #A80036; stroke-width: 1.0; stroke-dasharray: 2.0,2.0;" x1="202" x2="370.5" y1="333.4609" y2="333.4609"/><text fill="#000000" font-family="sans-serif" font-size="13" lengthAdjust="spacingAndGlyphs" textLength="105" x="214" y="328.7188">command status</text><polygon fill="#A80036" points="902,358.7715,912,362.7715,902,366.7715,906,362.7715" style="stroke: #A80036; stroke-width: 1.0;"/><line style="stroke: #A80036; stroke-width: 1.0;" x1="197" x2="908" y1="362.7715" y2="362.7715"/><text fill="#000000" font-family="sans-serif" font-size="13" lengthAdjust="spacingAndGlyphs" textLength="129" x="204" y="358.0293">log command status</text><polygon fill="#A80036" points="208,388.082,198,392.082,208,396.082,204,392.082" style="stroke: #A80036; stroke-width: 1.0;"/><line style="stroke: #A80036; stroke-width: 1.0; stroke-dasharray: 2.0,2.0;" x1="202" x2="918" y1="392.082" y2="392.082"/><text fill="#000000" font-family="sans-serif" font-size="13" lengthAdjust="spacingAndGlyphs" textLength="105" x="214" y="387.3398">success / failure</text><polygon fill="#A80036" points="74,409.082,64,413.082,74,417.082,70,413.082" style="stroke: #A80036; stroke-width: 1.0;"/><line style="stroke: #A80036; stroke-width: 1.0; stroke-dasharray: 2.0,2.0;" x1="68" x2="191" y1="413.082" y2="413.082"/><polygon fill="#A80036" points="1034.5,423.082,1044.5,427.082,1034.5,431.082,1038.5,427.082" style="stroke: #A80036; stroke-width: 1.0;"/><line style="stroke: #A80036; stroke-width: 1.0;" x1="63" x2="1040.5" y1="427.082" y2="427.082"/><polygon fill="#A80036" points="1371.5,452.3926,1381.5,456.3926,1371.5,460.3926,1375.5,456.3926" style="stroke: #A80036; stroke-width: 1.0;"/><line style="stroke: #A80036; stroke-width: 1.0;" x1="1056.5" x2="1377.5" y1="456.3926" y2="456.3926"/><text fill="#000000" font-family="sans-serif" font-size="13" lengthAdjust="spacingAndGlyphs" textLength="308" x="1063.5" y="451.6504">log success / failure and status of all commands</text><polygon fill="#A80036" points="1067.5,466.3926,1057.5,470.3926,1067.5,474.3926,1063.5,470.3926" style="stroke: #A80036; stroke-width: 1.0;"/><line style="stroke: #A80036; stroke-width: 1.0; stroke-dasharray: 2.0,2.0;" x1="1061.5" x2="1387.5" y1="470.3926" y2="470.3926"/><polygon fill="#A80036" points="74,480.3926,64,484.3926,74,488.3926,70,484.3926" style="stroke: #A80036; stroke-width: 1.0;"/><line style="stroke: #A80036; stroke-width: 1.0; stroke-dasharray: 2.0,2.0;" x1="68" x2="1050.5" y1="484.3926" y2="484.3926"/><path d="M13,499.3926 L75,499.3926 L75,506.3926 L65,516.3926 L13,516.3926 L13,499.3926 " fill="#EEEEEE" style="stroke: #000000; stroke-width: 1.0;"/><rect fill="none" height="60.6211" style="stroke: #000000; stroke-width: 2.0;" width="840" x="13" y="499.3926"/><text fill="#000000" font-family="sans-serif" font-size="13" font-weight="bold" lengthAdjust="spacingAndGlyphs" textLength="17" x="28" y="512.9609">alt</text><text fill="#000000" font-family="sans-serif" font-size="11" font-weight="bold" lengthAdjust="spacingAndGlyphs" textLength="185" x="90" y="512.0273">[if heartbeat thread still running]</text><polygon fill="#A80036" points="760,534.0137,770,538.0137,760,542.0137,764,538.0137" style="stroke: #A80036; stroke-width: 1.0;"/><line style="stroke: #A80036; stroke-width: 1.0;" x1="63" x2="766" y1="538.0137" y2="538.0137"/><text fill="#000000" font-family="sans-serif" font-size="13" lengthAdjust="spacingAndGlyphs" textLength="135" x="70" y="533.2715">stop heartbeat thread</text><polygon fill="#A80036" points="74,548.0137,64,552.0137,74,556.0137,70,552.0137" style="stroke: #A80036; stroke-width: 1.0;"/><line style="stroke: #A80036; stroke-width: 1.0; stroke-dasharray: 2.0,2.0;" x1="68" x2="776" y1="552.0137" y2="552.0137"/><rect fill="#EEEEEE" filter="url(#f1okf4b3jn1wbx)" height="3" style="stroke: #EEEEEE; stroke-width: 1.0;" width="2018.5" x="3" y="587.6689"/><line style="stroke: #000000; stroke-width: 1.0;" x1="3" x2="2021.5" y1="587.6689" y2="587.6689"/><line style="stroke: #000000; stroke-width: 1.0;" x1="3" x2="2021.5" y1="590.6689" y2="590.6689"/><rect fill="#EEEEEE" filter="url(#f1okf4b3jn1wbx)" height="23.3105" style="stroke: #000000; stroke-width: 2.0;" width="430" x="797.25" y="577.0137"/><text fill="#000000" font-family="sans-serif" font-size="13" font-weight="bold" lengthAdjust="spacingAndGlyphs" textLength="412" x="803.25" y="593.582">heartbeat in the background so system knows we're working</text><path d="M1468.5,617.3242 L1542.5,617.3242 L1542.5,624.3242 L1532.5,634.3242 L1468.5,634.3242 L1468.5,617.3242 " fill="#EEEEEE" style="stroke: #000000; stroke-width: 1.0;"/><rect fill="none" height="178.1973" style="stroke: #000000; stroke-width: 2.0;" width="543" x="1468.5" y="617.3242"/><text fill="#000000" font-family="sans-serif" font-size="13" font-weight="bold" lengthAdjust="spacingAndGlyphs" textLength="29" x="1483.5" y="630.8926">loop</text><text fill="#000000" font-family="sans-serif" font-size="11" font-weight="bold" lengthAdjust="spacingAndGlyphs" textLength="136" x="1557.5" y="629.959">[until we're told to stop]</text><polygon fill="#A80036" points="1727.5,651.9453,1737.5,655.9453,1727.5,659.9453,1731.5,655.9453" style="stroke: #A80036; stroke-width: 1.0;"/><line style="stroke: #A80036; stroke-width: 1.0;" x1="1568.5" x2="1733.5" y1="655.9453" y2="655.9453"/><text fill="#000000" font-family="sans-serif" font-size="13" lengthAdjust="spacingAndGlyphs" textLength="152" x="1575.5" y="651.2031">send heartbeat to server</text><polygon fill="#A80036" points="1579.5,665.9453,1569.5,669.9453,1579.5,673.9453,1575.5,669.9453" style="stroke: #A80036; stroke-width: 1.0;"/><line style="stroke: #A80036; stroke-width: 1.0; stroke-dasharray: 2.0,2.0;" x1="1573.5" x2="1743.5" y1="669.9453" y2="669.9453"/><path d="M1478.5,684.9453 L1540.5,684.9453 L1540.5,691.9453 L1530.5,701.9453 L1478.5,701.9453 L1478.5,684.9453 " fill="#EEEEEE" style="stroke: #000000; stroke-width: 1.0;"/><rect fill="none" height="103.5762" style="stroke: #000000; stroke-width: 2.0;" width="523" x="1478.5" y="684.9453"/><text fill="#000000" font-family="sans-serif" font-size="13" font-weight="bold" lengthAdjust="spacingAndGlyphs" textLength="17" x="1493.5" y="698.5137">alt</text><text fill="#000000" font-family="sans-serif" font-size="11" font-weight="bold" lengthAdjust="spacingAndGlyphs" textLength="131" x="1555.5" y="697.5801">[if call to server failed]</text><polygon fill="#A80036" points="1840.5,704.2559,1850.5,708.2559,1840.5,712.2559,1844.5,708.2559" style="stroke: #A80036; stroke-width: 1.0;"/><line style="stroke: #A80036; stroke-width: 1.0;" x1="1568.5" x2="1846.5" y1="708.2559" y2="708.2559"/><polygon fill="#A80036" points="1579.5,718.2559,1569.5,722.2559,1579.5,726.2559,1575.5,722.2559" style="stroke: #A80036; stroke-width: 1.0;"/><line style="stroke: #A80036; stroke-width: 1.0; stroke-dasharray: 2.0,2.0;" x1="1573.5" x2="1856.5" y1="722.2559" y2="722.2559"/><line style="stroke: #000000; stroke-width: 1.0; stroke-dasharray: 2.0,2.0;" x1="1478.5" x2="2001.5" y1="731.2559" y2="731.2559"/><text fill="#000000" font-family="sans-serif" font-size="11" font-weight="bold" lengthAdjust="spacingAndGlyphs" textLength="30" x="1483.5" y="741.8906">[else]</text><polygon fill="#A80036" points="1938.5,762.5215,1948.5,766.5215,1938.5,770.5215,1942.5,766.5215" style="stroke: #A80036; stroke-width: 1.0;"/><line style="stroke: #A80036; stroke-width: 1.0;" x1="1568.5" x2="1944.5" y1="766.5215" y2="766.5215"/><text fill="#000000" font-family="sans-serif" font-size="13" lengthAdjust="spacingAndGlyphs" textLength="130" x="1575.5" y="761.7793">sleep for 15 minutes</text><polygon fill="#A80036" points="1579.5,776.5215,1569.5,780.5215,1579.5,784.5215,1575.5,780.5215" style="stroke: #A80036; stroke-width: 1.0;"/><line style="stroke: #A80036; stroke-width: 1.0; stroke-dasharray: 2.0,2.0;" x1="1573.5" x2="1954.5" y1="780.5215" y2="780.5215"/><!--
@startuml
skinparam ParticipantPadding 4
skinparam BoxPadding 8
title Application#main()
== run queued commands and log all events and status ==
box "Application"
participant "[[examples.Application.main.svg main()]]" as C1
participant "performMainRoutine()" as C4
participant "executeCommand()" as C5
end box
box "Helper"
participant "config()" as C2
participant "startHeartbeat()" as C3
participant "stopHeartBeat()" as C9
end box
box "Utility"
participant "[[examples.Utility.logStatus.svg logStatus()]]" as C6
participant "finishCommand()" as C7
participant "logOverallStatus()" as C8
end box

activate C1
C1 -> C2: initialize config
activate C2
C2 - -> C1: config file
deactivate C2
C1 -> C3: start heartbeating thread
activate C3
C3 - -> C1
deactivate C3
C1 -> C4
activate C4
loop over an array of commands
C4 -> C5: execute command
activate C5
C5 - -> C4: command status
deactivate C5
C4 -> C6: log command status
activate C6
C6 - -> C4: success / failure
deactivate C6
end loop
C4 - -> C1
deactivate C4
C1 -> C7
activate C7
C7 -> C8: log success / failure and status of all commands
activate C8
C8 - -> C7
deactivate C8
C7 - -> C1
deactivate C7
alt if heartbeat thread still running
C1 -> C9: stop heartbeat thread
activate C9
C9 - -> C1
deactivate C9
end

deactivate C1
== heartbeat in the background so system knows we're working ==
box "Helper"
participant "heartBeatThread()" as C10
participant "heartbeat()" as C11
participant "reconnect()" as C12
participant "sleep()" as C13
end box

activate C10
loop until we're told to stop
C10 -> C11: send heartbeat to server
activate C11
C11 - -> C10
deactivate C11
alt if call to server failed
C10 -> C12
activate C12
C12 - -> C10
deactivate C12

else else
C10 -> C13: sleep for 15 minutes
activate C13
C13 - -> C10
deactivate C13
end
end loop

deactivate C10
@enduml

PlantUML version 1.2018.14(Fri Dec 21 08:33:16 PST 2018)
(GPL source distribution)
Java Runtime: Java(TM) SE Runtime Environment
JVM: Java HotSpot(TM) 64-Bit Server VM
Java Version: 1.8.0_112-b16
Operating System: Mac OS X
OS Version: 10.13.3
Default Encoding: UTF-8
Language: en
Country: US
--></g></svg>